<svg aria-hidden="true" style="position: absolute; width: 0; height: 0; overflow: hidden;" version="1.1" xmlns="http://www.w3.org/2000/svg" xmlns:xlink="http://www.w3.org/1999/xlink">
    <defs>
          <path d="M27.654 22.957l-0.173-0.216c-1.372-1.735-2.519-2.637-3.503-2.756-0.851-0.116-1.673 0.472-2.548 1.077l-0.935 0.584c-0.112 0.056-0.223 0.101-0.327 0.132-0.547 0.155-1.927 0.245-2.708-0.469-0.909-0.832-2.32-2.355-3.417-3.685-1.048-1.377-2.2-3.095-2.801-4.176-0.508-0.916-0.083-2.197 0.201-2.672 0.056-0.093 0.129-0.185 0.211-0.276l0.824-0.761c0.012-0.012 0.017-0.027 0.028-0.037 0.008-0.008 0.021-0.005 0.031-0.012 0.744-0.628 1.513-1.275 1.619-2.105 0.124-0.976-0.483-2.296-1.857-4.029l-0.168-0.216c-0.851-1.091-2.137-2.74-3.985-2.468-0.727 0.108-1.376 0.356-2.045 0.776-0.007 0.004-0.011 0.012-0.016 0.016s-0.012 0.004-0.017 0.008l-0.932 0.691c-0.009 0.005-0.015 0.017-0.024 0.025-0.007 0.007-0.017 0.008-0.025 0.015-0.108 0.091-0.216 0.184-0.323 0.28-0.945 0.843-2.992 3.289-1.596 7.815 0.901 2.923 2.76 6.333 5.388 9.883l-0.025 0.021 1.449 1.805 0.012-0.009c2.849 3.371 5.749 5.976 8.407 7.553 1.773 1.053 3.323 1.401 4.597 1.401 1.677 0 2.879-0.603 3.481-0.995l0.379-0.253c0.043-0.029 0.073-0.071 0.104-0.108l0.825-0.621c0.009-0.008 0.015-0.019 0.024-0.027 0.004-0.004 0.011-0.003 0.016-0.007 0.587-0.536 0.993-1.097 1.276-1.763 0.732-1.705-0.579-3.339-1.445-4.42zM28.12 26.959c-0.22 0.517-0.541 0.957-1.005 1.384l-1.228 0.924c-1.112 0.723-3.489 1.616-6.943-0.435-2.657-1.577-5.583-4.244-8.461-7.712l-0.779-0.984c-2.711-3.595-4.617-7.037-5.517-9.955-1.169-3.793 0.304-5.828 1.291-6.707 0.1-0.091 0.2-0.175 0.299-0.259l0.004-0.004 0.895-0.663c0.544-0.344 1.048-0.536 1.628-0.624 1.239-0.187 2.247 1.12 2.987 2.069l0.173 0.22c1.536 1.937 1.684 2.859 1.636 3.235-0.053 0.417-0.688 0.952-1.248 1.423l-0.079 0.067c-0.003 0.003-0.004 0.007-0.007 0.009-0.004 0.003-0.008 0.004-0.012 0.007l-0.852 0.788c-0.005 0.005-0.008 0.012-0.013 0.019s-0.016 0.009-0.021 0.016c-0.132 0.148-0.245 0.296-0.337 0.449-0.479 0.801-0.931 2.457-0.217 3.739 0.623 1.12 1.808 2.889 2.897 4.319 1.139 1.381 2.591 2.949 3.532 3.809 0.705 0.644 1.687 0.86 2.536 0.86 0.455 0 0.872-0.063 1.188-0.152 0.167-0.048 0.339-0.117 0.516-0.204 0.011-0.005 0.016-0.015 0.027-0.021 0.005-0.003 0.013-0.001 0.019-0.005l0.989-0.619c0.032-0.021 0.053-0.049 0.080-0.076l0.012 0.013c0.609-0.423 1.304-0.919 1.739-0.847 0.385 0.047 1.26 0.417 2.799 2.36l0.177 0.223c0.749 0.935 1.776 2.215 1.297 3.333z"></path>
          </symbol><symbol id="icon-Arrow-left" viewBox="0 0 32 32">
          <path fill="#fff" style="fill: var(--color1, #fff)" d="M0 16c0 8.837 7.163 16 16 16s16-7.163 16-16c0-8.837-7.163-16-16-16s-16 7.163-16 16z"></path>
          <path fill="none" stroke="#011c44" style="stroke: var(--color2, #011c44)" stroke-linejoin="miter" stroke-linecap="butt" stroke-miterlimit="4" stroke-width="0.5587" d="M0.279 16c0 8.682 7.038 15.721 15.721 15.721s15.721-7.038 15.721-15.721c0-8.682-7.038-15.721-15.721-15.721s-15.721 7.038-15.721 15.721z"></path>
          <path fill="#011c44" style="fill: var(--color2, #011c44)" d="M9.841 16.514c-0.284-0.284-0.284-0.745 0-1.028l4.628-4.628c0.284-0.284 0.745-0.284 1.029 0s0.284 0.745 0 1.028l-4.114 4.114 4.114 4.114c0.284 0.284 0.284 0.744 0 1.029s-0.745 0.284-1.029 0l-4.628-4.628zM22.545 16.727h-12.19v-1.455h12.19v1.455z"></path>
          </symbol>
          <symbol id="icon-Arrow-right" viewBox="0 0 32 32">
          <path fill="#fff" style="fill: var(--color1, #fff)" d="M0 16c0 8.837 7.163 16 16 16s16-7.163 16-16c0-8.837-7.163-16-16-16s-16 7.163-16 16z"></path>
          <path fill="none" stroke="#011c44" style="stroke: var(--color2, #011c44)" stroke-linejoin="miter" stroke-linecap="butt" stroke-miterlimit="4" stroke-width="0.5587" d="M0.279 16c0 8.682 7.038 15.721 15.721 15.721s15.721-7.038 15.721-15.721c0-8.682-7.038-15.721-15.721-15.721s-15.721 7.038-15.721 15.721z"></path>
          <path fill="#011c44" style="fill: var(--color2, #011c44)" d="M23.060 15.486c0.284 0.284 0.284 0.744 0 1.029l-4.628 4.628c-0.284 0.284-0.744 0.284-1.029 0s-0.284-0.744 0-1.029l4.114-4.114-4.114-4.114c-0.284-0.284-0.284-0.744 0-1.028s0.744-0.284 1.029 0l4.628 4.628zM22.545 16.727h-12.19v-1.455h12.19v1.455z"></path>
          </symbol>
          <symbol id="icon-facebook-icon" viewBox="0 0 32 32">
          <path d="M23.987 2.128c-1.345-0.143-2.697-0.212-4.049-0.208-4.484 0-7.271 2.856-7.271 7.453v3.121h-3.767c-0.177 0-0.346 0.070-0.471 0.195s-0.195 0.295-0.195 0.471v5.133c0 0.177 0.070 0.346 0.195 0.471s0.295 0.195 0.471 0.195h3.767v10.293c0 0.177 0.070 0.346 0.195 0.471s0.295 0.195 0.471 0.195h5.304c0.177 0 0.346-0.070 0.471-0.195s0.195-0.295 0.195-0.471v-10.293h3.755c0.162 0 0.318-0.059 0.44-0.166s0.2-0.254 0.221-0.415l0.663-5.133c0.012-0.094 0.004-0.19-0.023-0.281s-0.074-0.175-0.137-0.246c-0.063-0.071-0.14-0.128-0.226-0.168s-0.18-0.059-0.275-0.059h-4.417v-2.612c0-1.293 0.26-1.833 1.877-1.833h2.719c0.177 0 0.346-0.070 0.471-0.195s0.195-0.295 0.195-0.471v-4.593c0-0.162-0.059-0.318-0.166-0.44s-0.254-0.2-0.415-0.221zM23.233 6.715l-2.053 0.001c-2.876 0-3.209 1.808-3.209 3.167v3.28c0 0.177 0.070 0.346 0.195 0.471s0.294 0.195 0.471 0.196h4.328l-0.492 3.8h-3.835c-0.177 0-0.346 0.070-0.471 0.195s-0.195 0.295-0.195 0.471v10.291h-3.971v-10.291c0-0.177-0.070-0.346-0.195-0.471s-0.295-0.195-0.471-0.195h-3.765v-3.8h3.765c0.177 0 0.346-0.070 0.471-0.195s0.195-0.295 0.195-0.471v-3.789c0-3.832 2.22-6.12 5.937-6.12 1.345 0 2.56 0.073 3.296 0.137v3.324z"></path>
          </symbol>
          <symbol id="icon-inst-icon" viewBox="0 0 32 32">
          <path d="M16 8.897c-1.405 0-2.778 0.417-3.946 1.197s-2.079 1.89-2.616 3.188-0.678 2.726-0.404 4.104c0.274 1.378 0.951 2.643 1.944 3.637s2.259 1.67 3.637 1.944c1.378 0.274 2.806 0.133 4.104-0.404s2.407-1.448 3.188-2.616c0.781-1.168 1.197-2.541 1.197-3.946 0-1.884-0.748-3.69-2.080-5.022s-3.139-2.080-5.023-2.080zM16 21.25c-1.038 0-2.053-0.308-2.917-0.885s-1.536-1.397-1.934-2.356c-0.397-0.959-0.501-2.015-0.299-3.033s0.703-1.954 1.437-2.688 1.67-1.234 2.688-1.437c1.018-0.203 2.074-0.099 3.033 0.299s1.779 1.070 2.356 1.934c0.577 0.863 0.885 1.878 0.885 2.917-0.004 1.391-0.558 2.724-1.542 3.708s-2.317 1.538-3.708 1.542zM22.794 0.868h-13.588c-2.211 0-4.332 0.878-5.896 2.442s-2.442 3.685-2.442 5.896v13.588c0 2.211 0.878 4.332 2.442 5.896s3.685 2.442 5.896 2.442h13.588c2.211 0 4.332-0.878 5.896-2.442s2.442-3.685 2.442-5.896v-13.588c0-2.211-0.878-4.332-2.442-5.896s-3.685-2.442-5.896-2.442zM29.279 22.794c0 1.72-0.683 3.369-1.899 4.586s-2.866 1.899-4.586 1.899h-13.588c-1.72 0-3.37-0.683-4.586-1.899s-1.899-2.866-1.899-4.586v-13.588c0-1.72 0.683-3.37 1.899-4.586s2.866-1.899 4.586-1.899h13.588c1.72 0 3.369 0.683 4.586 1.899s1.899 2.866 1.899 4.586v13.588zM25.574 7.971c0 0.305-0.091 0.604-0.26 0.858s-0.411 0.452-0.693 0.569c-0.282 0.117-0.593 0.148-0.892 0.088s-0.575-0.207-0.791-0.423c-0.216-0.216-0.363-0.491-0.423-0.791s-0.029-0.61 0.088-0.892 0.315-0.523 0.569-0.693c0.254-0.17 0.552-0.26 0.858-0.26 0.41 0 0.802 0.163 1.092 0.452s0.452 0.682 0.452 1.092z"></path>
          </symbol>
          <symbol id="icon-telephone-icon-svg" viewBox="0 0 32 32">
          </symbol>
    </defs>
</svg>
